<svg width="16" height="16" viewBox="0 0 16 16" fill="none" xmlns="http://www.w3.org/2000/svg">
<g clip-path="url(#clip0_382_266)">
<path d="M8 16C12.4183 16 16 12.4183 16 8C16 3.58172 12.4183 0 8 0C3.58172 0 0 3.58172 0 8C0 12.4183 3.58172 16 8 16Z" fill="#6DA544"/>
<path d="M8.00029 3.13074L14.609 8.0003L8.00029 12.8699L1.3916 8.0003L8.00029 3.13074Z" fill="#FFDA44"/>
<path d="M7.99988 10.7826C9.53666 10.7826 10.7825 9.53676 10.7825 7.99997C10.7825 6.46319 9.53666 5.21738 7.99988 5.21738C6.46309 5.21738 5.21729 6.46319 5.21729 7.99997C5.21729 9.53676 6.46309 10.7826 7.99988 10.7826Z" fill="#F0F0F0"/>
<path d="M6.60867 7.82635C6.12479 7.82635 5.65782 7.89995 5.21826 8.03651C5.23773 9.55651 6.47535 10.7829 7.99998 10.7829C8.94273 10.7829 9.77535 10.3136 10.2787 9.59638C9.41754 8.51835 8.09251 7.82635 6.60867 7.82635Z" fill="#0052B4"/>
<path d="M10.7309 8.53322C10.7644 8.3606 10.7825 8.1825 10.7825 8.00009C10.7825 6.46328 9.53671 5.2175 7.99993 5.2175C6.85325 5.2175 5.86887 5.91128 5.44287 6.90184C5.81943 6.82381 6.20931 6.78272 6.60865 6.78272C8.22481 6.78269 9.68687 7.4545 10.7309 8.53322Z" fill="#0052B4"/>
</g>
<defs>
<clipPath id="clip0_382_266">
<rect width="16" height="16" fill="white"/>
</clipPath>
</defs>
</svg>
