<svg width="115" height="20" viewBox="0 0 115 20" fill="none" xmlns="http://www.w3.org/2000/svg">
<path d="M11.1603 8.70417C11.1599 8.09038 10.9159 7.50186 10.4819 7.06784C10.0478 6.63382 9.45931 6.3898 8.84551 6.38938H7.6879C7.27313 6.38688 6.86199 6.46673 6.47831 6.6243C6.09463 6.78187 5.74606 7.014 5.45277 7.30729C5.15948 7.60058 4.92731 7.94923 4.76974 8.33291C4.61217 8.71658 4.53232 9.12769 4.53482 9.54246V19.9594H0.454102V2.91701H4.53482V2.99671C4.5361 3.1184 4.56821 3.23779 4.62813 3.34372C4.68806 3.44964 4.77385 3.53861 4.8775 3.6024C4.98115 3.66619 5.09927 3.70264 5.22083 3.70841C5.3424 3.71417 5.46345 3.68905 5.57267 3.63536C6.59319 3.1407 7.71174 2.88151 8.84581 2.87684H10.1627C10.852 2.87389 11.5344 3.01428 12.1665 3.28912C12.7987 3.56397 13.3668 3.96725 13.8348 4.47336C14.0743 4.75273 14.5132 4.75271 14.7928 4.51338C16.0698 3.47554 17.7063 2.87684 19.5024 2.87684H20.8194C22.1632 2.87875 23.4514 3.41339 24.4016 4.3636C25.3518 5.31382 25.8865 6.60207 25.8884 7.94587V19.9195H21.7775V8.6244C21.777 8.01058 21.533 7.42202 21.0989 6.988C20.6648 6.55398 20.0763 6.30994 19.4625 6.30954H18.3051C17.5517 6.30773 16.8227 6.57687 16.2512 7.06777C15.6797 7.55867 15.3037 8.23867 15.1918 8.98372L15.152 19.8797H11.1607V8.70417H11.1603ZM27.3645 11.3863C27.3609 9.20866 28.1867 7.11142 29.6741 5.5209C31.1615 3.93037 33.1987 2.96594 35.3717 2.82373H36.5211C38.0662 2.91823 39.5557 3.43554 40.8267 4.31912C42.0978 5.2027 43.1016 6.41861 43.7285 7.83399C43.6087 11.2665 41.2539 14.1003 38.0609 15.0183L35.9856 12.1846C38.0609 12.1846 39.8171 10.7876 40.4158 8.91145C39.968 8.1212 39.3179 7.46437 38.5323 7.00844C37.7467 6.55251 36.8539 6.3139 35.9456 6.3171C35.2741 6.31504 34.6089 6.4458 33.9881 6.70181C33.3674 6.95781 32.8034 7.33402 32.3286 7.80882C31.8538 8.28362 31.4775 8.8476 31.2215 9.46835C30.9655 10.0891 30.8348 10.7543 30.8368 11.4258C30.8348 12.0973 30.9655 12.7625 31.2215 13.3833C31.4775 14.004 31.8537 14.5681 32.3285 15.0429C32.8033 15.5177 33.3673 15.8939 33.9881 16.1499C34.6088 16.4059 35.2741 16.5366 35.9456 16.5345C37.563 16.4955 39.1434 16.0421 40.5354 15.2175L42.6508 18.0114C40.6482 19.2901 38.3215 19.9688 35.9456 19.9673C34.8182 19.9691 33.7016 19.7483 32.6597 19.3177C31.6178 18.887 30.6711 18.255 29.874 17.4579C29.0768 16.6607 28.4448 15.714 28.0142 14.6721C27.5835 13.6302 27.3628 12.5136 27.3645 11.3863Z" fill="url(#paint0_linear_130_15289)"/>
<path d="M97.9697 6.38955H96.8118C96.3971 6.38707 95.986 6.46694 95.6023 6.62452C95.2186 6.7821 94.87 7.01426 94.5768 7.30754C94.2835 7.60083 94.0513 7.94941 93.8937 8.33308C93.7361 8.71674 93.6563 9.12787 93.6588 9.54264V19.9601H89.5479V2.91734H93.6588V2.997C93.6601 3.11869 93.6922 3.23808 93.7521 3.34401C93.812 3.44995 93.8978 3.53896 94.0014 3.60275C94.1051 3.66653 94.2232 3.70301 94.3447 3.70876C94.4663 3.7145 94.5873 3.68934 94.6965 3.63562C95.7171 3.14118 96.8357 2.88209 97.9697 2.87744V6.38955Z" fill="black"/>
<path d="M49.276 0H45.165V15.0469C45.1646 15.6917 45.2912 16.3303 45.5378 16.9261C45.7843 17.522 46.1459 18.0633 46.6019 18.5193C47.0578 18.9752 47.5992 19.3368 48.195 19.5834C48.7908 19.8299 49.4294 19.9566 50.0743 19.9561H52.7085V16.4837H51.0322C50.5677 16.4796 50.1233 16.2933 49.7949 15.9648C49.4664 15.6364 49.2801 15.1921 49.276 14.7276V0Z" fill="black"/>
<path d="M69.671 7.85033C69.5513 11.2429 67.1965 14.0766 64.0434 14.9946L61.9277 12.2008C64.0031 12.2008 65.7593 10.8038 66.358 8.92765C65.4001 7.21142 63.4843 6.13382 61.3291 6.37329C59.0142 6.65267 57.1383 8.52857 56.8988 10.8434C56.5795 13.9167 58.9343 16.4711 61.9277 16.4711C63.9402 16.4776 65.8955 15.8026 67.4754 14.5561C69.0553 13.3096 70.1667 11.5649 70.6286 9.60617C71.062 7.59174 72.2106 5.80255 73.8617 4.56982C75.5128 3.33709 77.5546 2.74431 79.6092 2.90122C80.6803 2.96646 81.7264 3.25177 82.6824 3.73935C82.8253 3.81071 82.9841 3.84438 83.1437 3.83718C83.3032 3.82997 83.4583 3.78213 83.5943 3.69818C83.7302 3.61424 83.8424 3.49697 83.9203 3.3575C83.9982 3.21803 84.0392 3.06097 84.0393 2.90122H88.1104V19.9437H84.0394C84.0394 19.2253 83.2811 18.7863 82.6824 19.1056C81.333 19.7679 79.8309 20.0573 78.332 19.9437C77.0891 19.8503 75.8814 19.4879 74.7926 18.8814C73.7037 18.275 72.7597 17.4391 72.0259 16.4316C72.8995 15.4445 73.6133 14.3267 74.1412 13.1189C74.7399 14.875 76.2965 16.1921 78.2522 16.4717C78.9274 16.5585 79.6132 16.5088 80.2689 16.3256C80.9245 16.1423 81.5367 15.8292 82.069 15.4048C82.6014 14.9804 83.043 14.4535 83.3678 13.8551C83.6925 13.2568 83.8938 12.5993 83.9596 11.9217C84.1991 9.28748 82.323 6.89279 79.7289 6.45374C77.2543 6.05459 74.8995 7.49145 74.1012 9.76643C74.0294 9.9742 73.9761 10.1879 73.9419 10.4051C73.3026 13.132 71.7598 15.5625 69.5643 17.3016C67.3687 19.0407 64.6495 19.986 61.8487 19.984C56.9793 19.984 53.028 15.873 53.3472 10.9239C53.6265 6.53355 57.2985 3.02129 61.7287 2.94149C63.3893 2.8843 65.0297 3.31994 66.443 4.1935C67.8564 5.06707 68.9796 6.33946 69.671 7.85033Z" fill="black"/>
<path d="M114.253 8.02564V15.5291C113.68 15.0396 112.951 14.7707 112.198 14.7707C111.444 14.7707 110.715 15.0396 110.142 15.5291V8.70416C110.142 8.09031 109.898 7.50171 109.464 7.06764C109.03 6.63357 108.441 6.38951 107.827 6.38906H106.67C106.255 6.38658 105.844 6.46645 105.46 6.62403C105.077 6.78161 104.728 7.01377 104.435 7.30705C104.142 7.60034 103.909 7.94892 103.752 8.33259C103.594 8.71626 103.514 9.12739 103.517 9.54215V19.9596H99.4458V2.91685H103.557V2.99651C103.558 3.11821 103.59 3.23761 103.65 3.34356C103.71 3.4495 103.796 3.53852 103.899 3.60231C104.003 3.6661 104.121 3.70256 104.243 3.7083C104.364 3.71405 104.485 3.68887 104.595 3.63514C105.615 3.14071 106.734 2.88161 107.868 2.87695H109.185C110.537 2.8969 111.826 3.44826 112.775 4.41178C113.724 5.3753 114.255 6.67352 114.254 8.02564" fill="black"/>
<path d="M114.254 17.9245C114.254 16.7783 113.325 15.8491 112.178 15.8491C111.032 15.8491 110.103 16.7783 110.103 17.9245C110.103 19.0707 111.032 19.9999 112.178 19.9999C113.325 19.9999 114.254 19.0707 114.254 17.9245Z" fill="url(#paint1_linear_130_15289)"/>
<defs>
<linearGradient id="paint0_linear_130_15289" x1="-2.53183" y1="21.2188" x2="9.98486" y2="-10.4943" gradientUnits="userSpaceOnUse">
<stop stop-color="#F29D23"/>
<stop offset="1" stop-color="#F3C525"/>
</linearGradient>
<linearGradient id="paint1_linear_130_15289" x1="110.888" y1="19.5932" x2="113.768" y2="16.4883" gradientUnits="userSpaceOnUse">
<stop stop-color="#F29D23"/>
<stop offset="1" stop-color="#F3C525"/>
</linearGradient>
</defs>
</svg>
