<svg width="20" height="21" viewBox="0 0 20 21" fill="none" xmlns="http://www.w3.org/2000/svg">
<path d="M2.2388 13.5376L3.82896 12.6196C3.91509 12.5699 4.01617 12.5526 4.11392 12.5709L7.24267 13.1565C7.4998 13.2046 7.73715 13.0067 7.73599 12.7451L7.7238 10.0037C7.72347 9.92923 7.74311 9.85602 7.78068 9.79171L9.35962 7.08852C9.44179 6.94783 9.43443 6.77216 9.34077 6.63884L6.68227 2.85474M15.8334 4.54921C11.25 6.75004 13.7499 9.66671 14.5834 10.0834C16.1476 10.8654 18.3229 10.9167 18.3229 10.9167C18.3297 10.7786 18.3332 10.6397 18.3332 10.5C18.3332 5.89763 14.6022 2.16667 9.99984 2.16667C5.39746 2.16667 1.6665 5.89763 1.6665 10.5C1.6665 15.1024 5.39746 18.8333 9.99984 18.8333C10.1396 18.8333 10.2785 18.8299 10.4165 18.8231M13.9647 18.7832L11.3257 11.8258L18.283 14.4648L15.1979 15.698L13.9647 18.7832Z" stroke="#344054" stroke-width="1.66667" stroke-linecap="round" stroke-linejoin="round"/>
</svg>
