<svg width="46" height="44" viewBox="0 0 46 44" fill="none" xmlns="http://www.w3.org/2000/svg">
<path d="M45.7853 24.4443H33.0672L27.98 14.6665H40.6981L45.7853 24.4443Z" fill="#FDC402"/>
<path d="M45.7853 24.4443L40.6981 34.2221H27.98L33.0672 24.4443H45.7853Z" fill="#FD3D80"/>
<path d="M27.9798 14.6665L22.8926 24.4443L27.9798 34.2221L33.067 24.4443L27.9798 14.6665Z" fill="#8557F4"/>
<path d="M5.0874 24.4443L10.1746 34.2221H22.8927L17.8055 24.4443H5.0874Z" fill="#FD3D80"/>
<path d="M22.8927 34.2222L17.8055 43.9999H5.0874L10.1746 34.2222H22.8927Z" fill="#8557F4"/>
<path d="M10.1745 34.2221L5.08723 43.9999L0 34.2221L5.08723 24.4443L10.1745 34.2221Z" fill="#FDC402"/>
<path d="M25.4362 9.77778H12.7181L7.63086 0H20.3489L25.4362 9.77778Z" fill="#8557F4"/>
<path d="M7.63086 19.5556L12.7181 9.77783H25.4362L20.3489 19.5556H7.63086Z" fill="#FDC402"/>
<path d="M12.7179 9.77778L7.63069 19.5556L2.54346 9.77778L7.63069 0L12.7179 9.77778Z" fill="#FD3D80"/>
<path d="M25.4364 19.5461V19.5554L23.5504 23.1895L23.4634 23.3476L22.8927 24.4443H22.8831L20.3491 19.5554L21.0745 18.1612L21.2776 17.7709L22.2834 15.8283L22.8927 14.6572V14.6665L25.4364 19.5461Z" fill="#FD3D80"/>
<path d="M20.3489 19.5557L17.8053 24.4445H11.4414L13.985 19.5557H20.3489Z" fill="#8557F4"/>
<path d="M25.436 29.3332H20.3488L19.6138 27.9298L18.2307 25.253L17.8052 24.4443H22.8924L23.1052 24.8533L23.463 25.5318L25.436 29.3332Z" fill="#FDC402"/>
</svg>
