<svg width="154" height="44" viewBox="0 0 154 44" fill="none" xmlns="http://www.w3.org/2000/svg">
<g clip-path="url(#clip0_130_12888)">
<path d="M58.2037 17.0924H63.8229L64.9351 19.5926H67.1209L62.053 8.80176H60.0026L54.9541 19.5926H57.1012L58.2134 17.0924H58.2037ZM61.0085 10.8001L63.1169 15.5217H58.9001L60.9988 10.8001H61.0085Z" fill="#1D2939"/>
<path d="M76.5022 17.901H70.6315V8.80176H68.5425V19.5926H76.5022V17.901Z" fill="#1D2939"/>
<path d="M86.1063 17.901H80.2356V8.80176H78.1562V19.5926H86.1063V17.901Z" fill="#1D2939"/>
<path d="M92.4311 19.7506C93.9592 19.7506 95.1585 19.3324 96.0289 18.5052C96.8994 17.6687 97.3346 16.4697 97.3346 14.8989V8.81104H95.2842V14.8246C95.2842 15.9306 95.0424 16.7392 94.5492 17.2411C94.0559 17.743 93.3596 17.994 92.4505 17.994C91.5413 17.994 90.8353 17.743 90.3421 17.2411C89.8488 16.7392 89.5974 15.9306 89.5974 14.8246V8.81104H87.5083V14.8989C87.5083 16.4697 87.9435 17.678 88.814 18.5052C89.6844 19.3417 90.8933 19.7506 92.4311 19.7506Z" fill="#1D2939"/>
<path d="M102.326 12.2872L108.525 19.5926H110.237V8.80176H108.167V16.1072L101.977 8.80176H100.256V19.5926H102.326V12.2872Z" fill="#1D2939"/>
<path d="M121.678 17.9103H115.334V14.9361H120.76V13.291H115.334V10.4841H121.446V8.80176H113.254V19.5926H121.678V17.9103Z" fill="#1D2939"/>
<path d="M126.088 14.9361H131.504V13.291H126.088V10.4841H132.2V8.80176H123.999V19.5926H132.423V17.9103H126.088V14.9361Z" fill="#1D2939"/>
<path d="M145.789 14.1925C145.789 13.1051 145.528 12.1571 145.015 11.3577C144.503 10.5584 143.787 9.92639 142.868 9.48025C141.949 9.02482 140.876 8.80176 139.657 8.80176H134.744V19.5926H139.657C140.876 19.5926 141.949 19.3696 142.868 18.9141C143.787 18.4587 144.503 17.836 145.015 17.0274C145.528 16.2187 145.789 15.28 145.789 14.2018V14.1925ZM143.178 16.1351C142.839 16.6928 142.365 17.1203 141.746 17.427C141.127 17.7337 140.402 17.8917 139.561 17.8917H136.833V10.4934H139.561C140.402 10.4934 141.137 10.6514 141.746 10.9581C142.365 11.2648 142.839 11.6923 143.178 12.25C143.516 12.7984 143.681 13.449 143.681 14.2018C143.681 14.9547 143.516 15.5867 143.178 16.1444V16.1351Z" fill="#1D2939"/>
<path d="M65.4959 24.2124L61.1147 31.3691L56.6561 24.2124H54.9346V35.0126H56.9269V27.9488L60.6214 33.7764H61.5499L65.2444 27.8558L65.2541 35.0126H67.2271L67.2078 24.2124H65.4959Z" fill="#1D2939"/>
<path d="M73.7263 24.2124L68.6777 35.0033H70.8248L71.937 32.5031H77.5562L78.6684 35.0033H80.8542L75.7863 24.2124H73.7359H73.7263ZM72.6334 30.9323L74.7321 26.2107L76.8405 30.9323H72.6237H72.6334Z" fill="#1D2939"/>
<path d="M89.4526 31.4063C90.1683 31.0996 90.7099 30.6628 91.0967 30.0958C91.4836 29.5289 91.677 28.8411 91.677 28.051C91.677 27.261 91.4836 26.5732 91.0967 25.997C90.7099 25.4207 90.1683 24.9839 89.4526 24.6678C88.7369 24.3518 87.8858 24.2031 86.8896 24.2031H82.2666V34.994H84.3557V31.8525H86.8896C87.0443 31.8525 87.1797 31.8432 87.3248 31.8339L89.617 34.994H91.8608L89.2785 31.4528C89.3365 31.4342 89.3945 31.4156 89.4429 31.397L89.4526 31.4063ZM88.8723 26.4617C89.3365 26.8335 89.5686 27.3632 89.5686 28.051C89.5686 28.7388 89.3365 29.2593 88.8723 29.6404C88.408 30.0215 87.7117 30.2073 86.7929 30.2073H84.3557V25.904H86.7929C87.7117 25.904 88.408 26.0899 88.8723 26.4617Z" fill="#1D2939"/>
<path d="M103.979 24.2124H101.639L96.0871 29.7519V24.2124H93.998V35.0126H96.0871V32.2428L97.8763 30.4862L101.832 35.0126H104.269L99.2594 29.0362L103.979 24.2124Z" fill="#1D2939"/>
<path d="M107.78 30.356H113.206V28.7016H107.78V25.8947H113.892V24.2124H105.701V35.0126H114.115V33.3303H107.78V30.356Z" fill="#1D2939"/>
<path d="M115.004 25.9133H118.718V35.0126H120.807V25.9133H124.531V24.2124H115.004V25.9133Z" fill="#1D2939"/>
<path d="M128.187 24.2124H126.098V35.0033H128.187V24.2124Z" fill="#1D2939"/>
<path d="M139.125 31.5271L132.935 24.2124H131.214V35.0126H133.284V27.6978L139.483 35.0126H141.195V24.2124H139.125V31.5271Z" fill="#1D2939"/>
<path d="M151.882 32.8375C151.65 32.9676 151.418 33.0698 151.186 33.1442C150.663 33.3115 150.131 33.3952 149.57 33.3952C148.971 33.3952 148.429 33.3022 147.936 33.1163C147.443 32.9304 147.017 32.6702 146.65 32.3263C146.282 31.9824 146.002 31.5827 145.808 31.118C145.615 30.6533 145.508 30.1514 145.508 29.603C145.508 29.0546 145.605 28.5434 145.808 28.0787C146.002 27.614 146.282 27.2143 146.65 26.8797C147.017 26.5358 147.443 26.2756 147.946 26.0897C148.449 25.9038 148.99 25.8109 149.58 25.8109C150.17 25.8109 150.75 25.9131 151.253 26.1083C151.766 26.3128 152.23 26.6195 152.675 27.0377L153.99 25.8016C153.468 25.2253 152.82 24.7885 152.056 24.4911C151.292 24.1936 150.431 24.0449 149.483 24.0449C148.603 24.0449 147.801 24.1843 147.066 24.4539C146.33 24.7234 145.682 25.1138 145.131 25.6064C144.58 26.1083 144.154 26.6938 143.855 27.3723C143.555 28.0508 143.41 28.7944 143.41 29.5937C143.41 30.393 143.555 31.1366 143.855 31.8151C144.154 32.4936 144.58 33.0791 145.122 33.581C145.663 34.0829 146.301 34.464 147.036 34.7336C147.772 35.0031 148.574 35.1425 149.454 35.1425C150.247 35.1425 151.031 35.031 151.805 34.7986C152.578 34.5663 153.265 34.2224 153.845 33.7762V29.4729H151.872V32.8282L151.882 32.8375Z" fill="#1D2939"/>
<path d="M45.7853 24.4443H33.0672L27.98 14.6665H40.6981L45.7853 24.4443Z" fill="#FDC402"/>
<path d="M45.7853 24.4443L40.6981 34.2221H27.98L33.0672 24.4443H45.7853Z" fill="#FD3D80"/>
<path d="M27.9798 14.6665L22.8926 24.4443L27.9798 34.2221L33.067 24.4443L27.9798 14.6665Z" fill="#8557F4"/>
<path d="M5.0874 24.4443L10.1746 34.2221H22.8927L17.8055 24.4443H5.0874Z" fill="#FD3D80"/>
<path d="M22.8927 34.2222L17.8055 43.9999H5.0874L10.1746 34.2222H22.8927Z" fill="#8557F4"/>
<path d="M10.1745 34.2221L5.08723 43.9999L0 34.2221L5.08723 24.4443L10.1745 34.2221Z" fill="#FDC402"/>
<path d="M25.4362 9.77778H12.7181L7.63086 0H20.3489L25.4362 9.77778Z" fill="#8557F4"/>
<path d="M7.63086 19.5556L12.7181 9.77783H25.4362L20.3489 19.5556H7.63086Z" fill="#FDC402"/>
<path d="M12.7179 9.77778L7.63069 19.5556L2.54346 9.77778L7.63069 0L12.7179 9.77778Z" fill="#FD3D80"/>
<path d="M25.4364 19.5461V19.5554L23.5504 23.1895L23.4634 23.3476L22.8927 24.4443H22.8831L20.3491 19.5554L21.0745 18.1612L21.2776 17.7709L22.2834 15.8283L22.8927 14.6572V14.6665L25.4364 19.5461Z" fill="#FD3D80"/>
<path d="M20.3489 19.5557L17.8053 24.4445H11.4414L13.985 19.5557H20.3489Z" fill="#8557F4"/>
<path d="M25.436 29.3332H20.3488L19.6138 27.9298L18.2307 25.253L17.8052 24.4443H22.8924L23.1052 24.8533L23.463 25.5318L25.436 29.3332Z" fill="#FDC402"/>
</g>
<defs>
<clipPath id="clip0_130_12888">
<rect width="154" height="44" fill="white"/>
</clipPath>
</defs>
</svg>
