<svg width="20" height="21" viewBox="0 0 20 21" fill="none" xmlns="http://www.w3.org/2000/svg">
<path d="M7.36796 18C5.34609 18 3.46136 17.4119 1.875 16.3973C3.22187 16.4844 5.59879 16.2757 7.07724 14.8655C4.85317 14.7634 3.85016 13.0577 3.71934 12.3287C3.90831 12.4016 4.80956 12.4891 5.31834 12.285C2.75994 11.6435 2.36745 9.39833 2.45467 8.71311C2.93437 9.04843 3.74841 9.16506 4.06821 9.1359C1.68425 7.43015 2.54189 4.86422 2.96345 4.31022C4.67426 6.68042 7.23825 8.01161 10.4102 8.08565C10.3504 7.82335 10.3188 7.55026 10.3188 7.26978C10.3188 5.25682 11.9459 3.625 13.9529 3.625C15.0016 3.625 15.9465 4.07047 16.6098 4.78302C17.3106 4.61882 18.3652 4.23442 18.8808 3.902C18.6209 4.83507 17.8118 5.61343 17.3224 5.90192C17.3185 5.89207 17.3265 5.91174 17.3224 5.90192C17.7523 5.8369 18.9155 5.61336 19.375 5.3016C19.1478 5.82578 18.29 6.69733 17.5861 7.18526C17.717 12.9613 13.2978 18 7.36796 18Z" fill="#47ACDF"/>
</svg>
